PathFileType	4	(X/Y/Z)	static.trc
DataRate	CameraRate	NumFrames	NumMarkers	Units	OrigDataRate	OrigDataStartFrame	OrigNumFrames
250.000000	250.000000	4	55	mm	250.000000	323	647
Frame#	Time	C7			RSH			LSH			MAN			T7			LARM			LELB			LFOREARM			LWR			RARM			RELB			RFOREARM			RWR			RASI			LASI			SACR			P1			P2			P3			LTHLP			LTHLD			LTHAP			LTHAD			LLEPI			LPAT			LMEPI			LTIAP			LTIAD			LTILAT			LLMAL			LMMAL			LHEEL			LMFS			LMFL			LP1MT			LTOE			LP5MT			RTHLP			RTHLD			RTHAP			RTHAD			RLEPI			RPAT			RMEPI			RTIAP			RTIAD			RTILAT			RLMAL			RMMAL			RHEEL			RMFS			RMFL			RP1MT			RTOE			RP5MT			
		X1	Y1	Z1	X2	Y2	Z2	X3	Y3	Z3	X4	Y4	Z4	X5	Y5	Z5	X6	Y6	Z6	X7	Y7	Z7	X8	Y8	Z8	X9	Y9	Z9	X10	Y10	Z10	X11	Y11	Z11	X12	Y12	Z12	X13	Y13	Z13	X14	Y14	Z14	X15	Y15	Z15	X16	Y16	Z16	X17	Y17	Z17	X18	Y18	Z18	X19	Y19	Z19	X20	Y20	Z20	X21	Y21	Z21	X22	Y22	Z22	X23	Y23	Z23	X24	Y24	Z24	X25	Y25	Z25	X26	Y26	Z26	X27	Y27	Z27	X28	Y28	Z28	X29	Y29	Z29	X30	Y30	Z30	X31	Y31	Z31	X32	Y32	Z32	X33	Y33	Z33	X34	Y34	Z34	X35	Y35	Z35	X36	Y36	Z36	X37	Y37	Z37	X38	Y38	Z38	X39	Y39	Z39	X40	Y40	Z40	X41	Y41	Z41	X42	Y42	Z42	X43	Y43	Z43	X44	Y44	Z44	X45	Y45	Z45	X46	Y46	Z46	X47	Y47	Z47	X48	Y48	Z48	X49	Y49	Z49	X50	Y50	Z50	X51	Y51	Z51	X52	Y52	Z52	X53	Y53	Z53	X54	Y54	Z54	X55	Y55	Z55	

324	1.292	-696.126159667969	1569.302734375001	312.033416748047	-651.4551391601565	1558.769042968751	475.8393859863284	-688.2738037109377	1553.686889648438	156.3065338134766	-539.8452148437502	1483.57080078125	308.4502563476564	-747.6523437500002	1373.9580078125	319.2843322753907	-709.0645751953127	1375.402221679688	40.10719680786134	-728.4475097656252	1250.509521484375	-16.21061325073243	-682.443542480469	1142.404663085938	-102.9718017578126	-661.7797851562502	1018.223388671875	-163.9658355712891	-670.4696044921877	1389.679931640625	587.574401855469	-700.1838989257815	1265.141845703125	652.5525512695315	-658.1625976562502	1155.631958007813	737.056091308594	-640.2085571289065	1033.760986328125	801.0409545898442	-533.6212158203127	1087.045654296875	400.6672668457034	-559.837341308594	1091.315551757813	185.1148834228516	-730.5965576171877	1134.378295898438	319.179168701172	-751.7168579101565	1108.691772460938	267.9207763671876	-736.6209106445315	1103.888427734375	373.1453247070314	-775.592163085938	1050.529907226563	321.4017333984376	-669.4160766601565	798.8087768554692	106.5679168701172	-665.416198730469	684.7229003906252	112.7383499145508	-536.126892089844	784.001342773438	172.0465393066407	-556.797790527344	674.9824829101565	179.0150451660157	-659.796081542969	559.1096191406252	122.7787704467774	-579.9617309570315	560.7532348632815	184.4590454101563	-660.4176025390627	541.841003417969	248.5173797607423	-644.0861816406252	381.6318664550782	188.3575286865235	-659.9629516601565	243.7141418457032	181.2904205322266	-695.3902587890627	320.9413146972657	108.400375366211	-701.8610839843752	102.4877243041993	121.593620300293	-680.7722778320315	112.9211044311524	214.5191497802736	-765.6053466796877	60.8735046386719	166.0097656250001	-600.6107177734377	94.68963623046878	169.5578002929688	-628.7255859375002	69.70856475830081	107.1872024536133	-553.335144042969	46.392879486084	202.7395477294923	-497.8988037109377	58.85884094238284	164.0734252929688	-576.755554199219	36.02628326416017	78.71051788330081	-632.6070556640627	825.4491577148442	514.306091308594	-635.5084228515627	711.7212524414065	509.2821960449221	-528.9024658203127	782.961059570313	423.8677368164065	-549.5925292968752	686.557067871094	420.3219299316409	-652.5018310546877	559.7874145507815	489.7795104980471	-584.489929199219	550.9346313476565	426.5194091796877	-685.3901367187502	543.9505004882815	366.8452453613282	-658.2817993164065	344.0197143554689	419.9031677246096	-673.0939941406252	218.0415039062501	414.4473876953127	-693.8948974609377	338.5804138183595	506.7195434570315	-695.5528564453127	102.5825881958008	481.8420715332034	-684.7329711914065	112.7368927001954	388.2636718750002	-765.4500732421877	59.19083404541018	441.5491943359377	-592.530456542969	97.98385620117193	431.9389953613284	-629.3713378906252	69.69268035888675	491.1551818847659	-554.3829345703127	49.04933547973636	388.7120056152346	-494.1412048339846	59.00444412231448	426.1343078613284	-569.8084716796877	40.71489715576173	515.8799438476565	
325	1.296	-696.0758056640627	1569.278076171876	311.9336242675782	-651.490905761719	1558.768432617188	475.8015136718752	-688.232360839844	1553.700439453126	156.256088256836	-539.7817382812502	1483.575927734375	308.4388732910157	-747.6140136718752	1373.982666015625	319.1550598144532	-708.981140136719	1375.384155273438	40.04757690429689	-728.3792114257815	1250.540283203125	-16.24554252624512	-682.369567871094	1142.426147460938	-103.0341796875001	-661.6837158203127	1018.242858886719	-164.0443267822266	-670.4304199218752	1389.634643554688	587.5430297851565	-700.1618652343752	1265.147216796875	652.5061645507815	-658.1962890625002	1155.569213867188	736.9523925781252	-640.2065429687502	1033.72607421875	800.958129882813	-533.5888671875002	1087.010498046875	400.6271057128909	-559.8377075195315	1091.404663085938	185.2621612548829	-730.5548095703127	1134.3984375	319.0344543457032	-751.597595214844	1108.630859375	267.9000549316407	-736.5721435546877	1103.876220703125	373.0778808593751	-775.5751342773442	1050.548706054688	321.3136291503907	-669.3716430664065	798.7987670898442	106.545753479004	-665.4078369140627	684.728942871094	112.6710586547852	-536.1519775390627	784.0429077148442	172.2096405029297	-556.820739746094	674.945739746094	179.1116180419922	-659.7964477539065	559.0784912109377	122.7900848388672	-579.990905761719	560.738708496094	184.4356384277344	-660.474060058594	541.8646240234377	248.590057373047	-644.1065063476565	381.6250915527345	188.3815155029297	-660.0427246093752	243.7611389160157	181.5054016113282	-695.3449707031252	320.8727416992189	108.3434219360352	-701.8774414062502	102.5620803833008	121.6264724731446	-680.801940917969	112.8983993530274	214.4948883056642	-765.6314697265627	60.90314865112308	166.1844177246094	-600.6302490234377	94.64144134521487	169.5474090576172	-628.6971435546877	69.73104095458987	107.1384658813477	-553.3235473632815	46.45948028564455	202.7274932861329	-497.9143066406252	58.78654479980472	164.1393127441407	-576.7341918945315	36.01047515869142	78.63719177246097	-632.6430664062502	825.4324340820317	514.2669067382815	-635.5341796875002	711.7247314453127	509.2164306640627	-528.9270019531252	782.9987182617192	423.9578247070315	-549.6184692382815	686.5759277343752	420.3367614746096	-652.5046997070315	559.8003540039065	489.7709960937502	-584.4741210937502	550.921081542969	426.4391174316409	-685.3823242187502	543.8549804687502	366.8294372558595	-658.3875732421877	343.9845581054689	419.9212951660159	-673.2395629882815	217.9065704345704	414.5185852050784	-693.8397216796877	338.6151123046876	506.7703552246096	-695.298767089844	102.9783782958985	482.0354919433596	-684.6677246093752	112.8008041381837	388.1016845703127	-765.3863525390627	59.4071960449219	441.5766601562502	-592.5144042968752	98.01956939697271	432.1847839355471	-629.2957153320315	69.75406646728518	491.2619323730471	-554.3569335937502	49.11044692993167	388.6834106445315	-494.0218505859377	59.15005493164065	426.2304992675784	-569.7964477539065	40.7323341369629	515.9659423828127	
326	1.3	-696.1213378906252	1569.341918945313	311.9908447265626	-651.456970214844	1558.758789062501	475.755065917969	-688.129089355469	1553.666015625001	156.1729736328126	-539.7740478515627	1483.661987304688	308.5055541992189	-747.524841308594	1373.946899414063	319.1259765625001	-708.8723144531252	1375.392822265625	39.97909164428712	-728.3344726562502	1250.459716796875	-16.22989082336426	-682.132995605469	1142.364624023438	-103.2466201782227	-661.5261840820315	1018.222290039063	-164.1593170166016	-670.4429321289065	1389.624877929688	587.4592895507815	-700.1848144531252	1265.119750976563	652.4153442382815	-658.1040039062502	1155.583374023438	736.981628417969	-640.2163085937502	1033.70166015625	800.8828125000005	-533.6270751953127	1086.998779296875	400.5863037109377	-559.7622070312502	1091.363403320313	185.1964721679688	-730.4962158203127	1134.389526367188	319.0146789550782	-751.546569824219	1108.613159179688	267.8964843750001	-736.5493164062502	1103.961181640625	372.9912109375001	-775.4695434570317	1050.5546875	321.1701049804689	-669.3579101562502	798.8040161132817	106.5276718139649	-665.3664550781252	684.714294433594	112.6828765869141	-536.1358642578127	784.026000976563	172.1677551269532	-556.7562255859377	674.9651489257815	178.9825897216797	-659.7268066406252	559.0744628906252	122.6841659545899	-579.9570922851565	560.7263183593752	184.3875274658204	-660.5072021484377	541.8692626953127	248.5644683837892	-644.0810546875002	381.6393127441407	188.3695526123047	-660.003112792969	243.7502593994142	181.2722625732422	-695.3350830078127	320.9499511718751	108.3318099975587	-701.870300292969	102.5805282592774	121.644760131836	-680.7324829101565	112.8853225708008	214.4424285888673	-765.6230468750002	60.89235687255862	166.0848541259766	-600.6398925781252	94.65252685546878	169.5840148925782	-628.683776855469	69.69377136230472	107.1118927001954	-553.3380126953127	46.46173095703126	202.6869964599611	-497.9536437988284	58.76441955566409	164.1884002685547	-576.7369384765627	36.05382156372072	78.6741638183594	-632.6470336914065	825.4428100585942	514.2597656250002	-635.490417480469	711.7347412109377	509.2603759765627	-528.9332275390627	782.9829101562505	423.9017639160159	-549.6026611328127	686.5570068359377	420.3675842285159	-652.539001464844	559.7791748046877	489.7284240722659	-584.506774902344	550.9356689453127	426.3460998535159	-685.3677978515627	543.8552246093752	366.8154296875001	-658.3204345703127	343.972869873047	419.8924560546877	-673.2937011718752	217.9332275390626	414.4944763183596	-693.911560058594	338.5839233398439	506.6921997070315	-695.143981933594	103.0883865356446	482.1731262207034	-684.3914794921877	112.7917251586915	387.9366455078127	-765.458435058594	59.28081130981448	441.5815734863284	-592.5776367187502	98.00878906250006	432.0362548828127	-629.3164672851565	69.70583343505862	491.2502136230471	-554.3898925781252	49.07080459594729	388.7515258789065	-494.065612792969	59.10145187377933	426.1745300292971	-569.8274536132815	40.71705245971681	515.9273071289065	
327	1.304	-696.083190917969	1569.393676757813	311.999725341797	-651.4244384765627	1558.766113281251	475.7164611816409	-688.0882568359377	1553.655883789063	156.1595764160157	-539.7127075195315	1483.572265625	308.3447570800782	-747.4744262695315	1373.919189453125	319.0749511718751	-708.820495605469	1375.3994140625	39.92745590209962	-728.2339477539065	1250.592041015625	-16.49140930175782	-682.014099121094	1142.412475585938	-103.3391036987305	-661.4245605468752	1018.299194335938	-164.2019042968751	-670.426452636719	1389.6640625	587.3855590820315	-700.1948242187502	1265.11767578125	652.3375244140627	-658.0705566406252	1155.57177734375	737.0034179687502	-640.1904907226565	1033.675170898438	800.864868164063	-533.5938110351565	1086.9931640625	400.5423889160159	-559.713073730469	1091.307861328125	185.0259857177735	-730.481628417969	1134.411743164063	318.8832397460939	-751.4149169921877	1108.569702148438	267.7858276367189	-741.8005371093752	1104.65625	373.4833984375001	-775.4236450195317	1050.547241210938	321.1472167968751	-669.3147583007815	798.777709960938	106.4762039184571	-665.3054199218752	684.7260742187502	112.613510131836	-536.086364746094	783.9934692382817	172.134506225586	-556.7741699218752	675.0037841796877	179.0846405029297	-659.7401123046877	559.0673828125002	122.671127319336	-579.9288330078127	560.6905517578127	184.3968353271485	-660.2005004882815	541.8466796875002	248.6052551269532	-644.055114746094	381.6588134765626	188.3176879882813	-660.0083618164065	243.740447998047	181.2918548583985	-695.3138427734377	320.8969116210939	108.2962875366212	-701.8503417968752	102.583351135254	121.6435317993165	-680.737487792969	112.928565979004	214.5500030517579	-765.6132812500002	60.88013076782229	166.0567321777344	-600.5513916015627	94.72492980957034	169.3333892822266	-628.6835937500002	69.717887878418	107.1476516723633	-553.4257812500002	46.44952774047853	202.6993865966798	-497.9599609375002	58.79658508300784	164.1561431884766	-576.6988525390627	36.03543090820314	78.61868286132815	-632.6607055664065	825.438110351563	514.2322387695315	-635.5186767578127	711.735290527344	509.2437744140627	-528.937683105469	782.9778442382817	423.9407653808596	-549.5808105468752	686.557556152344	420.3213500976565	-652.5047607421877	559.7962646484377	489.7688293457034	-584.4584960937502	550.9395751953127	426.4324951171877	-685.373229980469	543.9197998046877	366.7484741210939	-658.2847290039065	343.9793395996095	419.8731384277346	-673.2225341796877	217.9578399658204	414.4890747070315	-693.924743652344	338.600555419922	506.6887512207034	-695.1622314453127	103.0767898559571	482.1616821289065	-684.2105102539065	112.8465194702149	387.7362976074221	-765.4246215820315	59.22340393066409	441.5816345214846	-592.5885009765627	98.0069198608399	432.0889892578127	-629.3017578125002	69.683464050293	491.2637329101565	-554.3356933593752	49.11754226684573	388.7092285156252	-494.1040649414065	59.01569366455081	426.165954589844	-569.8467407226565	40.71144485473634	515.921813964844	
